<svg xmlns="http://www.w3.org/2000/svg" viewBox="0 0 500 500"><g id="freepik--background-complete--inject-69"><polygon points="120.21 316.91 117.82 331.26 101.61 418.79 99 418.79 110.79 331.26 112.53 316.91 120.21 316.91" style="fill:#dbdbdb"></polygon><polygon points="112.53 316.91 120.21 316.91 117.82 331.26 110.79 331.26 112.53 316.91" style="fill:#c7c7c7"></polygon><polygon points="171.12 418.79 168.5 418.79 152.29 331.26 149.9 316.91 157.59 316.91 159.33 331.26 171.12 418.79" style="fill:#dbdbdb"></polygon><polygon points="157.59 316.91 159.33 331.26 152.29 331.26 149.9 316.91 157.59 316.91" style="fill:#c7c7c7"></polygon><polygon points="219.73 418.79 217.12 418.79 200.91 331.26 198.52 316.91 206.21 316.91 207.95 331.26 219.73 418.79" style="fill:#dbdbdb"></polygon><polygon points="207.95 331.26 200.91 331.26 198.52 316.91 206.21 316.91 207.95 331.26" style="fill:#c7c7c7"></polygon><polygon points="215.59 323.65 96.82 323.65 96.82 314.02 141.28 311.14 156.22 224.94 211.06 224.94 215.59 323.65" style="fill:#dbdbdb"></polygon><polygon points="215.59 323.65 209.12 323.65 204.9 224.94 211.06 224.94 215.59 323.65" style="fill:#c7c7c7"></polygon><rect x="110.32" y="57.63" width="52.36" height="63.51" style="fill:#ebebeb"></rect><rect x="116.31" y="63.43" width="40.39" height="51.92" style="fill:#fff"></rect><rect x="116.31" y="63.43" width="1.58" height="51.92" style="fill:#dbdbdb"></rect><rect x="162.68" y="57.63" width="1.58" height="63.51" style="fill:#dbdbdb"></rect><rect x="129.84" y="70.59" width="9.52" height="28.38" style="fill:#dbdbdb"></rect><path d="M151.58,104.31H125.19V89.41h26.39Zm-25.39-1h24.39V90.41H126.19Z" style="fill:#ebebeb"></path><rect x="48.07" y="124.73" width="52.36" height="63.51" style="fill:#ebebeb"></rect><rect x="54.06" y="130.53" width="40.39" height="51.92" style="fill:#fff"></rect><rect x="54.06" y="130.53" width="1.58" height="51.92" style="fill:#dbdbdb"></rect><rect x="100.43" y="124.73" width="1.58" height="63.51" style="fill:#dbdbdb"></rect><rect x="70.34" y="143.95" width="8.16" height="20.63" style="fill:#ebebeb"></rect><path d="M87.59,171.21H64.67V156H87.59Zm-21.92-1H86.59V157H65.67Z" style="fill:#dbdbdb"></path><path d="M87.59,239.56l-13.12.27-6.66.12c-2.23,0-4.47,0-6.7.05h-.44v-.44l-.06-11.19v-.51h.5l13.24.06c4.42,0,8.83.11,13.24.16h.28v.27c0,1.89-.09,3.78-.13,5.65Zm0,0-.14-5.66c0-1.86-.11-3.7-.13-5.53l.27.27c-4.41.05-8.82.16-13.24.16l-13.24.07.5-.5,0,11.19-.45-.45c2.18,0,4.36,0,6.55,0l6.58.12Z" style="fill:#ebebeb"></path><path d="M72.82,253.67l-13.12.27-6.66.12c-2.23,0-4.47,0-6.7.05H45.9v-.44l-.06-11.19V242h.5l13.24.06c4.41,0,8.83.11,13.24.16h.28v.27c0,1.89-.08,3.78-.13,5.65Zm0,0L72.68,248c-.05-1.86-.11-3.7-.13-5.53l.27.27c-4.41.05-8.83.16-13.24.16L46.34,243l.5-.49-.05,11.19-.45-.45c2.18,0,4.36,0,6.55.05l6.58.12Z" style="fill:#ebebeb"></path><path d="M363.58,360.91l-13.12.27-6.66.12c-2.23,0-4.47,0-6.7.05h-.44v-.44l-.06-11.19v-.51h.5l13.24.06c4.42,0,8.83.11,13.24.16h.28v.27c0,1.89-.09,3.78-.14,5.65Zm0,0-.14-5.66c0-1.86-.11-3.7-.13-5.53l.27.27c-4.41.05-8.82.16-13.24.16l-13.24.07.5-.5-.05,11.19-.45-.45c2.18,0,4.36,0,6.55.05l6.58.12Z" style="fill:#ebebeb"></path><path d="M348.81,375l-13.12.27-6.67.12c-2.22,0-4.46,0-6.69,0h-.44V375l-.05-11.19v-.51h.5l13.24.06c4.41,0,8.83.11,13.24.16h.28v.27c0,1.89-.08,3.78-.13,5.65Zm0,0-.14-5.66c-.05-1.86-.11-3.7-.13-5.53l.27.27c-4.41,0-8.83.16-13.24.16l-13.24.07.5-.5L322.78,375l-.45-.45c2.18,0,4.36,0,6.55.05l6.57.12Z" style="fill:#ebebeb"></path><path d="M453.66,253.67l-13.13.27-6.66.12c-2.22,0-4.46,0-6.69.05h-.45v-.44l-.05-11.19V242h.5l13.24.06c4.41,0,8.83.11,13.24.16h.27v.27c0,1.89-.08,3.78-.13,5.65Zm0,0-.14-5.66c0-1.86-.12-3.7-.13-5.53l.27.27c-4.41.05-8.83.16-13.24.16l-13.24.06.5-.49-.06,11.19-.44-.45c2.18,0,4.36,0,6.54.05l6.58.12Z" style="fill:#ebebeb"></path><path d="M438.89,55.2l-13.13.28-6.66.11c-2.22,0-4.46,0-6.69.06H412V55.2l0-11.19v-.5h.51l13.24.06c4.41,0,8.82.12,13.24.17h.27V44c0,1.9-.09,3.79-.13,5.65Zm0,0-.14-5.65c-.05-1.87-.12-3.71-.14-5.54l.28.27c-4.42,0-8.83.16-13.24.17l-13.24.06.5-.5-.06,11.19-.44-.45c2.18,0,4.35,0,6.54.06l6.58.11Z" style="fill:#ebebeb"></path><path d="M453.66,69.31l-13.13.28-6.66.11c-2.22,0-4.46,0-6.69.06h-.45v-.45l-.05-11.19v-.5h.5l13.24.06c4.41,0,8.83.12,13.24.17h.27v.27c0,1.9-.08,3.79-.13,5.65Zm0,0-.14-5.65c0-1.87-.12-3.71-.13-5.54l.27.27c-4.41,0-8.83.16-13.24.17l-13.24.06.5-.5-.06,11.19-.44-.45c2.18,0,4.36,0,6.54.06l6.58.11Z" style="fill:#ebebeb"></path><path d="M87.59,55.2l-13.12.28-6.66.11c-2.23,0-4.47,0-6.7.06h-.44V55.2L60.61,44v-.5h.5l13.24.06c4.42,0,8.83.12,13.24.17h.28V44c0,1.9-.09,3.79-.13,5.65Zm0,0-.14-5.65c0-1.87-.11-3.71-.13-5.54l.27.27c-4.41,0-8.82.16-13.24.17l-13.24.06.5-.5,0,11.19-.45-.45c2.18,0,4.36,0,6.55.06l6.58.11Z" style="fill:#ebebeb"></path><path d="M240.33,178.26l-13.12.27-6.66.12c-2.23,0-4.47,0-6.7,0h-.44v-.44l-.05-11.19v-.51h.5l13.24.06c4.41,0,8.83.11,13.24.16h.28v.27c0,1.89-.08,3.78-.13,5.65Zm0,0-.14-5.66c-.05-1.86-.11-3.7-.13-5.53l.27.27c-4.41,0-8.83.16-13.24.16l-13.24.07.5-.5,0,11.19-.45-.45c2.18,0,4.36,0,6.55.05L227,178Z" style="fill:#ebebeb"></path></g><g id="freepik--Shadows--inject-69"><ellipse cx="178.6" cy="453.82" rx="129" ry="18.56" style="fill:#ebebeb"></ellipse><ellipse cx="412.67" cy="431.12" rx="37.72" ry="6.56" style="fill:#ebebeb"></ellipse><ellipse cx="193.32" cy="435.26" rx="154.02" ry="18.56" style="fill:#ebebeb"></ellipse></g><g id="freepik--Floor--inject-69"><polygon points="44.15 418.79 95.61 418.55 147.07 418.46 250 418.3 352.93 418.46 404.39 418.55 455.85 418.79 404.39 419.04 352.93 419.13 250 419.29 147.07 419.13 95.61 419.04 44.15 418.79" style="fill:#263238"></polygon></g><g id="freepik--Desk--inject-69"><rect x="210.35" y="270.68" width="88.24" height="158.11" style="fill:#37474f"></rect><rect x="210.35" y="270.68" width="88.24" height="10.57" style="fill:#263238"></rect><rect x="43.52" y="262.16" width="292.95" height="8.53" style="fill:#37474f"></rect><polygon points="62.34 270.68 62.06 281.25 58.34 428.79 51.6 428.79 51.6 270.68 62.34 270.68" style="fill:#37474f"></polygon><polygon points="51.6 270.68 62.34 270.68 62.06 281.25 51.6 281.25 51.6 270.68" style="fill:#263238"></polygon><rect x="298.59" y="270.68" width="29.9" height="158.11" style="fill:#455a64"></rect><rect x="298.59" y="270.68" width="29.9" height="10.57" style="fill:#263238"></rect></g><g id="freepik--Letter--inject-69"><rect x="224.48" y="57.63" width="219.59" height="281.09" style="fill:#fff"></rect><path d="M444.07,338.72l-219.59.11h-.11v-.11l-.14-281.09v-.25h.25l219.59.11h.14v.14Zm0,0-.14-281.09.14.14-219.59.11.25-.25-.14,281.09-.11-.11Z" style="fill:#263238"></path><path d="M290.57,146.84c4.95-.21,9.9-.31,14.85-.4s9.9-.08,14.85-.12,9.9,0,14.85.12,9.9.19,14.85.4c-5,.22-9.9.32-14.85.41s-9.9.07-14.85.12-9.9,0-14.85-.13S295.52,147.06,290.57,146.84Z" style="fill:#263238"></path><path d="M290.57,152.72c3.1-.22,6.21-.32,9.31-.4s6.21-.08,9.32-.12,6.21,0,9.31.12,6.21.18,9.32.4c-3.11.22-6.21.32-9.32.4s-6.21.08-9.31.12-6.21,0-9.32-.12S293.67,152.94,290.57,152.72Z" style="fill:#263238"></path><path d="M290.57,158.6c4.32-.22,8.64-.32,13-.4s8.65-.08,13-.13,8.64,0,13,.13,8.64.18,13,.4c-4.33.22-8.65.32-13,.4s-8.64.08-13,.12-8.65,0-13-.12S294.89,158.81,290.57,158.6Z" style="fill:#263238"></path><path d="M250.57,266.68c3.18-.22,6.36-.32,9.53-.4s6.36-.08,9.54-.12,6.35,0,9.53.12,6.36.18,9.53.4c-3.17.22-6.35.32-9.53.4s-6.36.08-9.53.12-6.36,0-9.54-.12S253.75,266.9,250.57,266.68Z" style="fill:#263238"></path><path d="M250.57,272.56c3.67-.22,7.35-.32,11-.4s7.35-.08,11-.13,7.35,0,11,.12,7.34.19,11,.41c-3.68.21-7.35.31-11,.4s-7.35.08-11,.12-7.34,0-11-.12S254.24,272.77,250.57,272.56Z" style="fill:#263238"></path><path d="M250.57,306c5.77-.22,11.55-.32,17.32-.4l17.33-.12,17.32.12c5.78.08,11.55.18,17.33.4-5.78.22-11.55.32-17.33.4l-17.32.12-17.33-.12C262.12,306.31,256.34,306.2,250.57,306Z" style="fill:#263238"></path><path d="M250.57,278.43c2.24-.21,4.48-.31,6.72-.4s4.49-.11,6.73-.12,4.48,0,6.72.12,4.48.19,6.73.4c-2.25.22-4.49.32-6.73.41s-4.48.1-6.72.12-4.49,0-6.73-.13S252.81,278.65,250.57,278.43Z" style="fill:#263238"></path><path d="M252.4,301.17c1.66-1.14,3.37-2.23,5.13-3.23a24.06,24.06,0,0,1,5.54-2.5,7,7,0,0,1,.77-.15.79.79,0,0,1,.84.28,2.94,2.94,0,0,1,.36,1.57,18.13,18.13,0,0,1-.32,3.05c-.35,2-.85,4-1.39,5.92a91.62,91.62,0,0,1-4,11.46,16.9,16.9,0,0,1-1.44,2.72,3.17,3.17,0,0,1-.54.64.82.82,0,0,1-.53.23.53.53,0,0,1-.36-.13l-.19-.18a3.15,3.15,0,0,1-.43-1.62,20.77,20.77,0,0,1,1.07-6,35,35,0,0,1,2.28-5.65,17.28,17.28,0,0,1,3.56-5,5.66,5.66,0,0,1,2.8-1.33,3.41,3.41,0,0,1,1.58.13,2.51,2.51,0,0,1,1.11,1.15,8.36,8.36,0,0,0,.84,1.21,1.24,1.24,0,0,0,1.23.41,8.35,8.35,0,0,0,2.54-1.49c.4-.31.8-.62,1.21-.91a5.64,5.64,0,0,1,.67-.4.76.76,0,0,1,.84,0c.39.5.29,1,.49,1.48a.91.91,0,0,0,1,.66,9.19,9.19,0,0,0,2.22-1.94c.69-.74,1.35-1.5,2-2.26,1.32-1.53,2.62-3.08,4-4.58.68-.76,1.37-1.5,2.1-2.21a12.43,12.43,0,0,1,1.16-1,3.15,3.15,0,0,1,.69-.41,1,1,0,0,1,.44-.1.57.57,0,0,1,.47.25,2.71,2.71,0,0,1,.21,1.61,13,13,0,0,1-.25,1.52,27.21,27.21,0,0,1-.81,2.94,29.2,29.2,0,0,1-2.41,5.61,6,6,0,0,1-1,1.27,1.11,1.11,0,0,1-.89.35,2.51,2.51,0,0,1-.81-.23,3.78,3.78,0,0,1-2-2.47,1.41,1.41,0,0,1,.12-.95,1,1,0,0,1,.39-.37,1.06,1.06,0,0,1,.52-.12,5.83,5.83,0,0,1,1.57.38c1,.34,1.9.75,2.83,1.15s1.84.82,2.77,1.19a12.32,12.32,0,0,0,1.4.5,4.54,4.54,0,0,0,.67.15,1,1,0,0,0,.55-.12c.76-.38,1.27-1.32,2-2.07a2.42,2.42,0,0,1,1.55-.79.73.73,0,0,1,.83.82,4.3,4.3,0,0,1-.15.82c-.14.46-.2,1-.07,1.05s.73.05,1.16-.06a7.65,7.65,0,0,0,2.54-1.33,13.82,13.82,0,0,1,1.29-.87,2.49,2.49,0,0,1,1.69-.4,6.27,6.27,0,0,1,2.59,1.87,6.61,6.61,0,0,0,1.08.94c.18.11.34.15.39.11a4.41,4.41,0,0,0,.58-.36,22.83,22.83,0,0,0,2.27-1.92,25.67,25.67,0,0,0,3.91-4.5,5.1,5.1,0,0,0,1-2.61c0-.91-.93-1.32-1.9-1.47a16.37,16.37,0,0,0-5.92.08,14.63,14.63,0,0,0-2.86.81,5.65,5.65,0,0,0-1.28.7c-.37.27-.71.66-.6,1a1.78,1.78,0,0,0,1,.88c.43.22.92.37,1.39.56a28,28,0,0,0,2.88.85c3.92.92,8,.94,12,1.14v.07c-4-.11-8.11,0-12.1-.88a27.09,27.09,0,0,1-2.93-.82c-.48-.18-1-.33-1.44-.56a2.12,2.12,0,0,1-1.19-1.13,1.51,1.51,0,0,1,.74-1.49,6.79,6.79,0,0,1,1.36-.77,16.36,16.36,0,0,1,2.95-.88,17.29,17.29,0,0,1,6.13-.16,4.26,4.26,0,0,1,1.54.52,1.84,1.84,0,0,1,.87,1.49,5.53,5.53,0,0,1-1,3,25,25,0,0,1-4,4.66,26.43,26.43,0,0,1-2.35,2,4.3,4.3,0,0,1-.71.43,1.12,1.12,0,0,1-1-.15,7.44,7.44,0,0,1-1.22-1,5.92,5.92,0,0,0-2.22-1.68c-.74-.11-1.61.58-2.41,1.15a8.24,8.24,0,0,1-2.79,1.45,2.24,2.24,0,0,1-1.79-.06,1.11,1.11,0,0,1-.35-1,5.65,5.65,0,0,1,.16-.8,4.14,4.14,0,0,0,.14-.66c0-.09,0-.12,0-.09s0,0-.09,0a1.79,1.79,0,0,0-1.08.58c-.69.63-1.15,1.61-2.22,2.18a1.66,1.66,0,0,1-.91.18,4.62,4.62,0,0,1-.81-.17c-.5-.16-1-.34-1.45-.54-.94-.38-1.87-.8-2.79-1.21s-1.84-.82-2.77-1.15a5.32,5.32,0,0,0-1.37-.35c-.32,0-.5.27-.41.7a3.18,3.18,0,0,0,1.67,2.06,2.16,2.16,0,0,0,.64.2c.13,0,.27-.06.45-.21a5.28,5.28,0,0,0,.87-1.14,32.19,32.19,0,0,0,3.27-8.36,12.58,12.58,0,0,0,.26-1.47,2.56,2.56,0,0,0-.12-1.35c-.14-.26-.72.07-1.07.33a13,13,0,0,0-1.14,1c-.73.69-1.42,1.42-2.1,2.17-1.36,1.49-2.67,3-4,4.54-.67.75-1.34,1.51-2,2.25a9.18,9.18,0,0,1-2.34,2,1.13,1.13,0,0,1-1.3-.8c-.19-.47-.18-1.07-.44-1.37-.13-.12-.38,0-.59.08a5.83,5.83,0,0,0-.62.39c-.41.29-.8.61-1.2.92a8.15,8.15,0,0,1-2.64,1.57,1.55,1.55,0,0,1-1.52-.48,7.58,7.58,0,0,1-.9-1.25c-.26-.42-.53-.86-.95-1a2.87,2.87,0,0,0-1.4-.09,5.18,5.18,0,0,0-2.59,1.27,16.86,16.86,0,0,0-3.4,4.87,33.94,33.94,0,0,0-2.19,5.59,20.17,20.17,0,0,0-1,5.86,2.56,2.56,0,0,0,.32,1.27l.09.09h0a.3.3,0,0,0,.14-.09,2.53,2.53,0,0,0,.43-.52,20.43,20.43,0,0,0,1.4-2.62A90.83,90.83,0,0,0,262.87,306a60.31,60.31,0,0,0,1.44-5.86,17.79,17.79,0,0,0,.34-3,2.62,2.62,0,0,0-.26-1.35c-.13-.16-.24-.2-.51-.15s-.48.06-.72.13a26.76,26.76,0,0,0-5.52,2.36c-1.78.95-3.51,2-5.21,3.09Z" style="fill:#263238"></path><polygon points="236.01 98.75 259.62 98.56 283.23 98.5 330.45 98.37 377.68 98.5 401.29 98.56 424.9 98.75 401.29 98.93 377.68 99 330.45 99.12 283.23 99 259.62 98.93 236.01 98.75" style="fill:#FFC727"></polygon><path d="M294.87,114.68c6.57-.2,13.13-.3,19.7-.38s13.14-.07,19.71-.12l19.7.12,9.85.14c3.28.08,6.57.13,9.85.24-3.28.12-6.57.17-9.85.25l-9.85.14-19.7.11c-6.57,0-13.14,0-19.71-.11S301.44,114.89,294.87,114.68Z" style="fill:#263238"></path><path d="M310.34,120.28c4-.2,8-.3,12-.38s8-.08,12-.12,8,0,12,.12l6,.14c2,.08,4,.13,6,.24-2,.12-4,.16-6,.25l-6,.14c-4,.08-8,.07-12,.11s-8,0-12-.12S314.33,120.49,310.34,120.28Z" style="fill:#263238"></path><path d="M307.4,126.15c4.48-.2,9-.3,13.44-.38s9-.08,13.44-.12,9,0,13.43.12l6.72.14c2.24.08,4.48.13,6.72.24-2.24.12-4.48.16-6.72.25l-6.72.14c-4.48.08-9,.07-13.43.11s-9,0-13.44-.11S311.88,126.36,307.4,126.15Z" style="fill:#263238"></path><polygon points="251.13 187.1 271.91 186.86 292.7 186.72 334.27 186.6 375.85 186.72 396.64 186.86 417.42 187.1 396.64 187.35 375.85 187.49 334.27 187.6 292.7 187.49 271.91 187.34 251.13 187.1" style="fill:#263238"></polygon><polygon points="251.13 193.31 271.91 193.07 292.7 192.93 334.27 192.81 375.85 192.93 396.64 193.06 417.42 193.31 396.64 193.55 375.85 193.69 334.27 193.81 292.7 193.69 271.91 193.55 251.13 193.31" style="fill:#263238"></polygon><polygon points="251.13 199.52 270.68 199.27 290.23 199.13 329.34 199.02 368.45 199.13 388 199.27 407.55 199.52 388 199.76 368.45 199.9 329.34 200.02 290.23 199.9 270.68 199.76 251.13 199.52" style="fill:#263238"></polygon><path d="M251.13,205.72c8.92-.2,17.84-.3,26.77-.38l26.77-.11,26.77.11,13.38.14,13.39.24-13.39.25-13.38.14-26.77.11-26.77-.11C269,206,260.05,205.93,251.13,205.72Z" style="fill:#263238"></path><path d="M251.13,211.93c11.68-.2,23.37-.3,35.06-.38l35.06-.12,35.06.12,17.53.14,17.53.24-17.53.25-17.53.14-35.06.11-35.06-.12C274.5,212.23,262.81,212.14,251.13,211.93Z" style="fill:#263238"></path><polygon points="251.13 218.14 271.91 217.9 292.7 217.76 334.27 217.64 375.85 217.75 396.64 217.9 417.42 218.14 396.64 218.38 375.85 218.52 334.27 218.64 292.7 218.52 271.91 218.38 251.13 218.14" style="fill:#263238"></polygon><polygon points="251.13 230.55 271.91 230.31 292.7 230.17 334.27 230.06 375.85 230.17 396.64 230.31 417.42 230.55 396.64 230.8 375.85 230.94 334.27 231.05 292.7 230.94 271.91 230.8 251.13 230.55" style="fill:#263238"></polygon><path d="M251.13,236.76c11.68-.2,23.37-.3,35.06-.38l35.06-.12,35.06.12,17.53.14,17.53.24-17.53.25-17.53.14-35.06.11-35.06-.12C274.5,237.06,262.81,237,251.13,236.76Z" style="fill:#263238"></path><path d="M251.13,243c9.32-.21,18.64-.3,28-.38l28-.12,28,.11,14,.14,14,.25-14,.24-14,.14-28,.12-28-.12C269.77,243.27,260.45,243.18,251.13,243Z" style="fill:#263238"></path><path d="M270.84,93.73V87.34h2.74a1.65,1.65,0,0,1,.77.18A2,2,0,0,1,275,88a2.2,2.2,0,0,1,.4.66,2.11,2.11,0,0,1,.14.74,2.3,2.3,0,0,1-.09.64,2.24,2.24,0,0,1-.27.56,1.8,1.8,0,0,1-.43.44,1.74,1.74,0,0,1-.55.26l1.55,2.44h-.92l-1.46-2.29h-1.69v2.29Zm.81-3h1.93a1,1,0,0,0,.46-.11,1.05,1.05,0,0,0,.34-.29,1.27,1.27,0,0,0,.23-.43,1.69,1.69,0,0,0,.08-.5,1.44,1.44,0,0,0-.09-.51,1.49,1.49,0,0,0-.26-.42,1,1,0,0,0-.36-.29,1,1,0,0,0-.45-.11h-1.88Z" style="fill:#FFC727"></path><path d="M281.09,93v.72h-4.34V87.34H281v.72h-3.45v2.07h3v.68h-3V93Z" style="fill:#FFC727"></path><path d="M281.66,90.49a3.51,3.51,0,0,1,.2-1.14,3.29,3.29,0,0,1,.59-1,2.91,2.91,0,0,1,1-.73,2.84,2.84,0,0,1,1.29-.28,2.69,2.69,0,0,1,1.47.39,2.43,2.43,0,0,1,.91,1l-.64.42a1.64,1.64,0,0,0-.35-.51,1.79,1.79,0,0,0-.44-.34,2.22,2.22,0,0,0-.49-.18,2.83,2.83,0,0,0-.5,0,2,2,0,0,0-.94.22,2.39,2.39,0,0,0-.69.57,2.58,2.58,0,0,0-.41.81,2.72,2.72,0,0,0-.14.89,2.76,2.76,0,0,0,.16,1,2.73,2.73,0,0,0,.47.81,2.22,2.22,0,0,0,.7.55,1.87,1.87,0,0,0,.88.21,2.37,2.37,0,0,0,.52-.06,1.84,1.84,0,0,0,.51-.21,2.1,2.1,0,0,0,.45-.35,1.8,1.8,0,0,0,.35-.5l.67.36a2,2,0,0,1-.42.64,2.62,2.62,0,0,1-.63.46,3.09,3.09,0,0,1-.73.29,2.89,2.89,0,0,1-.76.1,2.56,2.56,0,0,1-1.2-.29,3.16,3.16,0,0,1-.95-.75,3.47,3.47,0,0,1-.62-1A3.4,3.4,0,0,1,281.66,90.49Z" style="fill:#FFC727"></path><path d="M290.73,93.78a2.77,2.77,0,0,1-1.23-.27,3.26,3.26,0,0,1-.95-.73,3.39,3.39,0,0,1-.61-1,3.31,3.31,0,0,1-.22-1.2,3.35,3.35,0,0,1,.23-1.22,3.55,3.55,0,0,1,.64-1,2.93,2.93,0,0,1,1-.71,2.71,2.71,0,0,1,1.2-.27,2.58,2.58,0,0,1,1.22.28,3.16,3.16,0,0,1,.95.75,3.48,3.48,0,0,1,.61,1,3.41,3.41,0,0,1,.21,1.18,3.4,3.4,0,0,1-.86,2.25,2.79,2.79,0,0,1-.95.71A2.71,2.71,0,0,1,290.73,93.78Zm-2.19-3.24a2.73,2.73,0,0,0,.16.94,2.48,2.48,0,0,0,.45.81,2.05,2.05,0,0,0,.69.55,1.93,1.93,0,0,0,.9.21,1.87,1.87,0,0,0,.92-.22,2.12,2.12,0,0,0,.68-.58,2.49,2.49,0,0,0,.44-.8,2.83,2.83,0,0,0,.14-.91,3,3,0,0,0-.15-.94,2.72,2.72,0,0,0-.45-.8,2.37,2.37,0,0,0-.7-.56,2.08,2.08,0,0,0-1.8,0,2.39,2.39,0,0,0-.69.57,2.47,2.47,0,0,0-.43.8A2.66,2.66,0,0,0,288.54,90.54Z" style="fill:#FFC727"></path><path d="M300.4,93.73V88.79l-2.13,3.79h-.46l-2.13-3.79v4.94h-.81V87.34h.85L298,91.49l2.32-4.15h.85v6.39Z" style="fill:#FFC727"></path><path d="M308.26,93.73V88.79l-2.12,3.79h-.46l-2.14-3.79v4.94h-.81V87.34h.86l2.31,4.15,2.32-4.15h.85v6.39Z" style="fill:#FFC727"></path><path d="M314.94,93v.72H310.6V87.34h4.26v.72h-3.45v2.07h3v.68h-3V93Z" style="fill:#FFC727"></path><path d="M316.86,88.86v4.87h-.81V87.34h.63l4,5v-5h.81v6.38h-.69Z" style="fill:#FFC727"></path><path d="M323,93.73V87.34h2.21a3.35,3.35,0,0,1,1.35.26,2.7,2.7,0,0,1,1,.68,2.9,2.9,0,0,1,.58,1,3.88,3.88,0,0,1,.2,1.24,3.66,3.66,0,0,1-.22,1.32,2.81,2.81,0,0,1-.62,1,2.9,2.9,0,0,1-1,.65,3.42,3.42,0,0,1-1.27.22Zm4.48-3.2a3.12,3.12,0,0,0-.15-1,2.12,2.12,0,0,0-.44-.78,2.05,2.05,0,0,0-.72-.51,2.42,2.42,0,0,0-1-.19h-1.4v5h1.4a2.52,2.52,0,0,0,1-.18,2,2,0,0,0,.71-.53,2.27,2.27,0,0,0,.43-.78A3.21,3.21,0,0,0,327.46,90.53Z" style="fill:#FFC727"></path><path d="M331.14,87.34h.68l2.61,6.39h-.86l-.76-1.87h-2.68l-.75,1.87h-.86Zm1.49,3.89-1.15-3-1.19,3Z" style="fill:#FFC727"></path><path d="M339.29,88.06h-2.2v5.67h-.81V88.06h-2.21v-.72h5.22Z" style="fill:#FFC727"></path><path d="M340.21,93.73V87.34H341v6.39Z" style="fill:#FFC727"></path><path d="M345.14,93.78a2.7,2.7,0,0,1-1.22-.27,3.3,3.3,0,0,1-1-.73,3.61,3.61,0,0,1-.61-1,3.53,3.53,0,0,1-.21-1.2,3.15,3.15,0,0,1,.23-1.22,3.33,3.33,0,0,1,.63-1,2.93,2.93,0,0,1,1-.71,2.71,2.71,0,0,1,1.2-.27,2.58,2.58,0,0,1,1.22.28,3,3,0,0,1,.95.75,3.28,3.28,0,0,1,.61,1,3.21,3.21,0,0,1,.22,1.18,3.35,3.35,0,0,1-.23,1.22,3.17,3.17,0,0,1-.63,1,2.93,2.93,0,0,1-1,.71A2.65,2.65,0,0,1,345.14,93.78ZM343,90.54a3,3,0,0,0,.15.94,2.91,2.91,0,0,0,.45.81,2.05,2.05,0,0,0,.69.55,1.93,1.93,0,0,0,.9.21,1.87,1.87,0,0,0,.92-.22,2.27,2.27,0,0,0,.69-.58,2.47,2.47,0,0,0,.43-.8,2.85,2.85,0,0,0,.15-.91,2.73,2.73,0,0,0-.16-.94,2.33,2.33,0,0,0-.45-.8,2.21,2.21,0,0,0-.69-.56,2,2,0,0,0-.89-.2,2,2,0,0,0-.92.21,2.22,2.22,0,0,0-.68.57,2.49,2.49,0,0,0-.44.8A2.91,2.91,0,0,0,343,90.54Z" style="fill:#FFC727"></path><path d="M350.09,88.86v4.87h-.81V87.34h.63l4,5v-5h.81v6.38H354Z" style="fill:#FFC727"></path><path d="M358.49,93.73V87.34h.81V93h3.56v.72Z" style="fill:#FFC727"></path><path d="M368.08,93v.72h-4.33V87.34H368v.72h-3.44v2.07h3v.68h-3V93Z" style="fill:#FFC727"></path><path d="M373.8,88.06h-2.21v5.67h-.81V88.06h-2.2v-.72h5.22Z" style="fill:#FFC727"></path><path d="M379.32,88.06h-2.2v5.67h-.81V88.06H374.1v-.72h5.22Z" style="fill:#FFC727"></path><path d="M384.58,93v.72h-4.34V87.34h4.26v.72h-3.45v2.07h3v.68h-3V93Z" style="fill:#FFC727"></path><path d="M385.69,93.73V87.34h2.73a1.69,1.69,0,0,1,.78.18,1.88,1.88,0,0,1,.61.47,2,2,0,0,1,.4.66,1.92,1.92,0,0,1,.15.74,2,2,0,0,1-.1.64,1.71,1.71,0,0,1-.27.56,1.6,1.6,0,0,1-.42.44,1.74,1.74,0,0,1-.55.26l1.54,2.44h-.91l-1.46-2.29H386.5v2.29Zm.81-3h1.93a1,1,0,0,0,.46-.11,1.05,1.05,0,0,0,.34-.29,1.47,1.47,0,0,0,.23-.43,1.69,1.69,0,0,0,.08-.5,1.48,1.48,0,0,0-.35-.93,1,1,0,0,0-.37-.29,1,1,0,0,0-.44-.11H386.5Z" style="fill:#FFC727"></path><path d="M258.16,170.58a14.14,14.14,0,0,0,4.2,1.7,14.51,14.51,0,1,0-4.2-1.7Z" style="fill:#ebebeb"></path><path d="M261.2,156.55a4.42,4.42,0,1,0,4.36-4.46A4.41,4.41,0,0,0,261.2,156.55Z" style="fill:#fff"></path><path d="M258.13,168.76l0,1.82a14.14,14.14,0,0,0,4.2,1.7,14.37,14.37,0,0,0,11-1.89l0-1.81a7.63,7.63,0,0,0-15.25.18Z" style="fill:#fff"></path></g><g id="freepik--Character--inject-69"><path d="M207.22,459.69c-2.31.76-68.43.14-70.93-1.48-1-.6-1.43-10.24-1.67-21.91v-.36c-.06-2.41,2.91-42.72,2.91-42.72l43.22.28-3.23,35.32-.24,7,0,.72s25.2,11.56,27.77,13.63S209.54,458.94,207.22,459.69Z" style="fill:#eb9481"></path><path d="M134.77,442.35c.27,8.79.73,15.37,1.52,15.86,2.5,1.62,68.62,2.24,70.94,1.48s.33-7.41-2.21-9.47c-1-.8-5.35-3-10.33-5.43,2.59,2.81,3.9,5.92-3,5.92C179.31,450.71,157.77,448.68,134.77,442.35Z" style="fill:#263238"></path><path d="M177.28,435.26H134.62s6.72-111.21,6.35-113.15c-.48-2.49-3.29-13.75-7-28.45-1.17-4.61-2.44-9.54-3.75-14.66-3.55-13.84-7.47-29-10.87-42.11-5.12-19.72-9.12-35-9.12-35h40.36s4.7,14.91,10.63,34.31c9.66,31.52,22.56,74.91,23.84,85.46C187.09,338.66,177.28,435.26,177.28,435.26Z" style="fill:#eb9481"></path><path d="M155.89,459.69c-2.32.76-68.44.14-70.94-1.48-1-.6-1.43-10.24-1.66-21.91,0-.12,0-.24,0-.36,0-2.41,2-42.72,2-42.72l42.13.28-1.21,34,0,1.34-.24,7,0,.72s25.2,11.56,27.76,13.63S158.21,458.94,155.89,459.69Z" style="fill:#eb9481"></path><path d="M83.43,442.35c.28,8.79.73,15.37,1.53,15.86,2.49,1.62,68.61,2.24,70.93,1.48s.34-7.41-2.21-9.47c-1-.8-5.35-3-10.33-5.43,2.6,2.81,3.9,5.92-3,5.92C128,450.71,106.44,448.68,83.43,442.35Z" style="fill:#263238"></path><path d="M149.25,201.86s-.93,19.31-5.35,34.6c-.35,1.27-.74,2.51-1.15,3.7a71.87,71.87,0,0,0-11.63,6s-2,73.83-1.87,78.41c.4,17.15-3.31,111.41-3.31,111.41l-42.51.19S88.1,330.88,88,324.6c-.09-10.09,2.31-54.7,4.16-87.24a256.69,256.69,0,0,1,4.45-35.5Z" style="fill:#eb9481"></path><path d="M150.56,201.86s32.82,101.42,34.75,113.77A203.73,203.73,0,0,1,187.59,336s-28.53,14.35-48,13.87-53.9-8.21-53.9-8.21,5.37-101.83,5.49-102.9-7.15-12.52,3.8-37.18Z" style="fill:#263238"></path><path d="M181,339.09l-.06,0c-.29-5-.9-10.06-1.47-15.08-.36-3-.73-6-1.14-9l-.63-4.51a38,38,0,0,0-1-4.42c-3.13-11.72-6.49-23.4-9.83-35.08l-10-35-9.63-34.11h0l5,16.48,5.17,17.47c3.44,11.65,6.8,23.32,10.16,35l4.93,17.54c1.62,5.86,3.26,11.7,4.73,17.6a39.74,39.74,0,0,1,.94,4.49l.58,4.52c.37,3,.72,6,1,9.05C180.28,329,180.79,334.05,181,339.09Zm-31-6.74-.87-19.05c-.17-3.17-.25-6.34-.48-9.52s-.56-6.35-.88-9.51c-.65-6.32-1.37-12.64-2.09-19l-4.74-37.84-2.44-18.92-2.3-16.75h0l2,16.8,2.31,18.93,4.49,37.87c.75,6.31,1.51,12.62,2.2,18.94.35,3.15.69,6.32.95,9.47s.35,6.35.54,9.52l1,19,1,16.56h.05Zm15-2.76-1.26-18.65c-.11-1.56-.27-3.13-.46-4.68l-.7-4.63c-.53-3.07-1-6.15-1.61-9.22-1.11-6.13-2.29-12.26-3.49-18.37q-3.69-18.35-7.58-36.63l-4-18.28L142,201.82h0l7.29,35.71c2.49,12.21,5,24.42,7.4,36.65,1.22,6.11,2.43,12.23,3.56,18.36s2.34,12.26,2.87,18.43l1.47,18.64,1.27,15.31.07,0ZM99.12,208.94c.63-2.46,1.33-4.9,2.17-7.29h-.05c-.88,2.37-1.64,4.8-2.31,7.24a90.58,90.58,0,0,0-2.05,9.52,68.8,68.8,0,0,0-.71,9.73,45.6,45.6,0,0,0,1.21,9.65l-1.49,27.37-1.4,27.41L93.16,320l-1,23.07.07,0L93.63,320l1.53-27.41,1.45-27.42L98,237.78v-.1a43.77,43.77,0,0,1-1.31-9.55,68,68,0,0,1,.59-9.67A88.45,88.45,0,0,1,99.12,208.94ZM136.3,314c-.55-12.66-1.29-25.31-2.05-38s-1.76-25.28-2.7-37.91l-1.46-18.95-1.49-17.44h0l2.48,36.42q1.29,19,2.45,37.93c.85,12.64,1.67,25.28,2.3,37.93.28,6.32.4,12.66.44,19,.07,5.57,0,11.15,0,16.72h.05c.12-5.57.25-11.15.29-16.73Q136.63,323.53,136.3,314ZM107.74,209.26c.54-2.55,1.17-5.09,1.93-7.58h0c-.82,2.47-1.49,5-2.08,7.54a94,94,0,0,0-1.67,9.43,78.65,78.65,0,0,0-.57,9.57,68.11,68.11,0,0,0,.67,9.57l-1.15,28c-.42,9.34-.7,18.69-1,28l-1,28c-.29,7.72-.49,15.43-.7,23.15l.09,0c.36-7.72.74-15.44,1-23.15l1.15-28c.38-9.34.8-18.69,1.09-28l1-28v-.05a67,67,0,0,1-.73-9.5,77.91,77.91,0,0,1,.5-9.53A91.49,91.49,0,0,1,107.74,209.26Zm15.35,66.89-.46-37.94-.23-19-.32-17.5h0v17.5l.1,19,.21,37.94.42,37.94,0,19,.14,15.34H123l.16-15.35.08-19Zm-8.53-57.51q.22-8.47.83-16.93h0q-.75,8.44-1.15,16.91-.2,4.66-.2,9.33c0,3.11.07,6.23.4,9.34v0l-.84,28.54c-.31,9.51-.5,19-.72,28.54l-.65,28.54c-.21,7.95-.33,15.9-.45,23.85h.08c.29-8,.59-15.9.8-23.85l.85-28.54c.28-9.51.58-19,.77-28.53l.66-28.54v0a92.55,92.55,0,0,1-.45-9.28C114.4,224.85,114.47,221.74,114.56,218.64Z" style="fill:#37474f"></path><path d="M118.5,111.31c-5.83,5.92-7.41,15.57-7.41,15.57s-5.55,9.77-3.91,15a9.6,9.6,0,0,0,6.18,6.43l-.59-2.91s1.93,3.72,8.27,5.17,14.68-.6,19-2.84a16.67,16.67,0,0,0,6.33-5.69l-1.58,4.25a12.56,12.56,0,0,0,9.71-6.85c3.57-6.56-7-15.84-7.9-17.85s-2.2-16.72-17.66-14C128.94,107.59,122.51,107.23,118.5,111.31Z" style="fill:#a6a6a6"></path><path d="M111.11,148a14,14,0,0,1-4.14-4.25,9,9,0,0,1-1-5.79,20.2,20.2,0,0,1,2.84-6.57c1.24-2.13,2.64-4.18,3.84-6.33.07-.12-.11-.21-.19-.12a54,54,0,0,0-3.79,5.11,25.9,25.9,0,0,0-3,5.24,9.72,9.72,0,0,0-.65,5.43,9.47,9.47,0,0,0,2,4.05A20.17,20.17,0,0,0,111,148.1C111.12,148.17,111.2,148,111.11,148Z" style="fill:#a6a6a6"></path><path d="M155.73,132.73c-1.91-5.4-6.82-8.79-9.84-13.48-1.63-2.55-2.91-5.37-5-7.57-.06-.06-.16,0-.11.1,1.74,2,2.76,4.38,4,6.66a39.75,39.75,0,0,0,4.68,6.34c3.11,3.65,6.83,8,6.18,13.13-.3,2.38-1.67,5-4.1,5.8a.07.07,0,1,0,.05.14,7.58,7.58,0,0,0,4.21-4.32A9.71,9.71,0,0,0,155.73,132.73Z" style="fill:#a6a6a6"></path><path d="M156,134.19a10.05,10.05,0,0,0-1.41-5.87,14.23,14.23,0,0,0-4.48-4.08c-2-1.27-4-2.47-5.26-4.5,0-.09-.17,0-.12.09,2,3.35,5.72,4.88,8.26,7.69,2.91,3.21,3,7.93,1,11.66a16.42,16.42,0,0,1-5.11,5.69s0,.08,0,0C152.54,142.48,155.73,138.75,156,134.19Z" style="fill:#a6a6a6"></path><path d="M213.83,136.93c-1.52-8.94-3.28-11-.54-19.23,1.79-5.4-.89-8.86-5.15-4.75-7,6.7-7.44,18.65-6.41,22.84Z" style="fill:#eb9481"></path><path d="M166,149.1l-1,6.1,33.76-.44a4.13,4.13,0,0,0,3.86-3.36l.45-2.78Z" style="fill:#dbdbdb"></path><path d="M162.2,151.92l.45-2.78,6.64-.08-.45,2.78A4.13,4.13,0,0,1,165,155.2a2.71,2.71,0,0,1-2.19-.94A2.86,2.86,0,0,1,162.2,151.92Z" style="fill:#ebebeb"></path><path d="M176.38,105.54l-8.09,49.62,30.45-.4a4.13,4.13,0,0,0,3.86-3.36l8.09-49.63-30.45.4a4,4,0,0,0-2.51,1A4,4,0,0,0,176.38,105.54Z" style="fill:#dbdbdb"></path><path d="M180.24,102.17l-1.64,10,37.09-.48,1.09-6.7a2.71,2.71,0,0,0-2.78-3.28Z" style="fill:#ebebeb"></path><path d="M176.38,105.54l-1.09,6.7,6.63-.09,1.09-6.7a2.71,2.71,0,0,0-2.77-3.28,4,4,0,0,0-2.51,1A4,4,0,0,0,176.38,105.54Z" style="fill:#dbdbdb"></path><path d="M132.73,163.24c13.47,17.94,29.86,37,41.93,38.17,11.49,1.08,33.26-30.62,36.23-40.46,1-3.39-24.09-13.31-26.65-10.52-4.83,5.25-12.59,20.55-14.37,20.49s-18.62-10.79-33.67-19.66C127.08,145.89,123.39,150.81,132.73,163.24Z" style="fill:#eb9481"></path><path d="M210.17,162.87s4.9-11.9,4.23-21.58c-.46-6.7-3.09-21.17-21-30.14-4.25-2.13-11.81-2.15-6.13,3.85,4,4.26,7.88,5.74,9.77,8.65,0,0-9.62,1.12-11.59,5.46a88.22,88.22,0,0,0-4.33,11.72,18.46,18.46,0,0,0,2.12,1s-1.71,4.13.94,10.39Z" style="fill:#eb9481"></path><path d="M212.94,135c-2.49-2.48-7.86-7.66-13.73-10.38-6.51-3-19.88-7-22.05-2.22-1.59,3.55,3.37,5.54,3.37,5.54s-5.87-.51-6.61,3c-.67,3.2,3.26,4.51,3.26,4.51s-3.62.31-3.67,3.52c-.07,3.86,7.52,2.59,10.84,6.56C185.09,146.39,212.94,135,212.94,135Z" style="fill:#eb9481"></path><path d="M197.18,132a28.67,28.67,0,0,0-16.53-4.19c-.14,0-.21.13-.08.15a70.58,70.58,0,0,1,16.58,4.1S197.21,132,197.18,132Z" style="fill:#263238"></path><path d="M194,138.49c-2.53-1.44-10.21-4-16.75-3.2-.14,0-.2.15-.07.16a75.72,75.72,0,0,1,16.79,3.1A0,0,0,0,0,194,138.49Z" style="fill:#263238"></path><path d="M179.79,154.67l25.34,19.43s-18.69,29.3-29.85,28.36-36.12-26.68-45.61-44.05c-6.56-12,.87-11.13,9.33-6.08s30.45,17.4,31.27,17S179.79,154.67,179.79,154.67Z" style="fill:#FFC727"></path><path d="M184.6,198.46a25.77,25.77,0,0,1-2.87,2l-.39.24-.46.25c-.32.18-.63.34-.94.48l-.45.2a9,9,0,0,1-.94.36c-.17,0-.33.11-.5.15a7.5,7.5,0,0,1-2.77.32l-.54-.06c-11.4-1.7-35.73-26.9-45.07-44-2.72-5-3-7.76-1.86-8.93C142.05,161.41,175.13,190.7,184.6,198.46Z" style="opacity:0.1"></path><path d="M198.73,179.05c-3.64-2.66-18.16-14.06-21.12-16.74-.21-.19-.14-.36.1-.2,11.11,7.7,17.68,14,21.12,16.79C198.92,179,198.82,179.12,198.73,179.05Z" style="fill:#263238"></path><path d="M93.89,204.26l57.75,1-4.53-17.29a18,18,0,0,0,2.6-15.07c-1.38-5.09-8-12.72-12-17.56-9.81-11.8-18.34-6.47-21.06-3.43C106.28,163.44,93.89,204.26,93.89,204.26Z" style="fill:#fff"></path><path d="M121.12,148.54s5.67,15,7.88,18.48,8.73,9.58,8.73,9.58.75-8.87,0-13.94-5.06-12.3-5.06-12.3a10.93,10.93,0,0,1,3.05,2.4c4.88,5,13.39,14.78,14.67,21.49a17.94,17.94,0,0,1-2.63,13.56l6.51,20.77-9.12,2.83-4.49-5.32L136,212l-46.2-6.44,7.68-14.48s11-28.56,15.36-34.81C117.85,149.11,121.12,148.54,121.12,148.54Z" style="fill:#FFC727"></path><path d="M131.66,186.9a49.82,49.82,0,0,1,7.43-.12c1.23.09,2.45.23,3.67.4.61.09,1.21.15,1.82.21a7.79,7.79,0,0,0,1.93,0c.05,0,.07.08,0,.09a12.06,12.06,0,0,1-1.8.29,11.5,11.5,0,0,1-1.76,0c-1.25-.08-2.49-.21-3.74-.3-2.51-.18-5-.36-7.55-.36C131.55,187.11,131.55,186.91,131.66,186.9Z" style="fill:#263238"></path><path d="M126.05,190.15a53.26,53.26,0,0,1,6-1.39c1-.17,2-.28,3-.37q.74-.06,1.47-.09c.53,0,1.07,0,1.61,0a0,0,0,1,1,0,.08c-.5,0-1,.19-1.5.26l-1.51.24-3,.47c-2,.3-4,.62-6,1A.08.08,0,0,1,126.05,190.15Z" style="fill:#263238"></path><path d="M122.15,150.67c.28,1,5.4,7.55,10.1,7.18,1.53-.12,1.23-8.51,1.23-8.51l.12-.62,1.67-8.73-10.4-6.22-1.5-.81s-.29,2.42-.63,5.43c0,.14,0,.28,0,.43s0,.33-.07.49c-.05.45-.11.91-.15,1.37s-.08.69-.1,1.06-.06.72-.1,1.09A57.91,57.91,0,0,0,122.15,150.67Z" style="fill:#eb9481"></path><path d="M122.74,138.39a17.84,17.84,0,0,0,10.86,10.33l1.67-8.73-10.4-6.22-1.5-.81S123.08,135.38,122.74,138.39Z" style="fill:#263238"></path><path d="M147.24,124.93c3,15.31-5.77,18.86-9.07,19.52-3,.59-13.27,2.24-17.89-12.67s1.53-21.16,8.31-22.88S144.19,109.63,147.24,124.93Z" style="fill:#eb9481"></path><path d="M144.6,124.08a7.87,7.87,0,0,1-1.08-.09,1.67,1.67,0,0,1-1.07-.29.57.57,0,0,1-.09-.68,1.41,1.41,0,0,1,1.31-.49,2,2,0,0,1,1.34.55A.59.59,0,0,1,144.6,124.08Z" style="fill:#263238"></path><path d="M134.21,125a9.28,9.28,0,0,0,1-.35,1.71,1.71,0,0,0,1-.56.56.56,0,0,0-.08-.67,1.39,1.39,0,0,0-1.39-.15,2,2,0,0,0-1.17.87A.59.59,0,0,0,134.21,125Z" style="fill:#263238"></path><path d="M136.87,127.71s-.08.06-.07.1c.19,1.05.24,2.28-.66,2.77,0,0,0,.07,0,.06C137.29,130.3,137.22,128.67,136.87,127.71Z" style="fill:#263238"></path><path d="M135.76,126.75c-1.71.13-1.32,3.54.26,3.42S137.2,126.65,135.76,126.75Z" style="fill:#263238"></path><path d="M135.11,127c-.27.23-.53.6-.88.67s-.76-.23-1.07-.54c0,0-.06,0-.06,0,.06.66.39,1.3,1.1,1.32s1-.61,1.13-1.29C135.35,127.09,135.23,126.92,135.11,127Z" style="fill:#263238"></path><path d="M142.68,126.55s.08,0,.09.09c.07,1.06.34,2.26,1.33,2.51,0,0,0,.06,0,.06C142.92,129.17,142.58,127.57,142.68,126.55Z" style="fill:#263238"></path><path d="M143.51,125.35c1.68-.31,2.17,3.09.61,3.37S142.09,125.61,143.51,125.35Z" style="fill:#263238"></path><path d="M144.25,125.47c.29.14.6.43.93.41s.59-.44.78-.83c0,0,0,0,.06,0,.11.65,0,1.36-.62,1.57s-1.05-.3-1.29-.92C144.06,125.61,144.13,125.41,144.25,125.47Z" style="fill:#263238"></path><path d="M137.83,136.63c.27.23.55.56.93.56a2.7,2.7,0,0,0,1.13-.34,0,0,0,0,1,0,.05,1.42,1.42,0,0,1-1.3.67,1.13,1.13,0,0,1-.9-.88C137.71,136.63,137.79,136.6,137.83,136.63Z" style="fill:#263238"></path><path d="M141.77,132.27s.41,1.55.5,2.3c0,.07-.17.12-.42.17h0a3.55,3.55,0,0,1-3.59-.89.08.08,0,0,1,.1-.12,5.31,5.31,0,0,0,3.34.52c0-.21-.8-2.62-.68-2.65a6.74,6.74,0,0,1,1.73.18c-.76-3.25-2-6.35-2.76-9.6a.1.1,0,0,1,.19-.07,53.47,53.47,0,0,1,3.41,10.21C143.68,132.73,142.08,132.36,141.77,132.27Z" style="fill:#263238"></path><path d="M141.74,134.47a4.25,4.25,0,0,1-1.45,1.63,1.93,1.93,0,0,1-1.14.29c-.88-.07-1-.83-1-1.52a4.46,4.46,0,0,1,.19-1.08A5.55,5.55,0,0,0,141.74,134.47Z" style="fill:#263238"></path><path d="M140.29,136.1a1.93,1.93,0,0,1-1.14.29c-.88-.07-1-.83-1-1.52A2,2,0,0,1,140.29,136.1Z" style="fill:#ff9bbc"></path><path d="M139.51,128.24l-.46-.44c.61-.71,2.11-1.77,3.41-.68l-.39.51C140.91,126.64,139.56,128.17,139.51,128.24Z" style="fill:#455a64"></path><path d="M118.07,132.47l-.61-.22c.1-.29,1-2.81,2.43-3.24s10.06-.79,10.43-.81l0,.65c-2.5.11-9.25.47-10.26.78S118.32,131.77,118.07,132.47Z" style="fill:#455a64"></path><path d="M134.38,132.21a5.1,5.1,0,0,1-2.66-.57c-1.61-1.08-2.78-5.34-2.83-5.52l-.11-.41.43,0c.32,0,8-.39,9.92,1.23,1,.86.62,3.16,0,3.87C138.4,131.67,136.26,132.21,134.38,132.21Zm-4.7-5.85c.41,1.37,1.39,4,2.42,4.71,1.4.94,5.64.31,6.52-.72.42-.5.71-2.35.06-2.91C137.39,126.32,132.11,126.27,129.68,126.36Z" style="fill:#455a64"></path><path d="M145,130.27a2.88,2.88,0,0,1-2-.64,3.83,3.83,0,0,1-.85-3.48c.61-2,5.26-3,5.79-3.13l.41-.08v.41c0,.17.14,4.21-.45,5.53a2.66,2.66,0,0,1-2,1.3A4.42,4.42,0,0,1,145,130.27Zm2.69-6.48c-1.53.39-4.5,1.35-4.87,2.56a3.19,3.19,0,0,0,.67,2.78,2.84,2.84,0,0,0,2.29.38,2,2,0,0,0,1.51-.91A17.32,17.32,0,0,0,147.66,123.79Z" style="fill:#455a64"></path><path d="M123,132.47s-3.92-4.46-6-3,1.27,8.18,4,8.86a2.64,2.64,0,0,0,3.36-1.8Z" style="fill:#eb9481"></path><path d="M118,131.36a0,0,0,0,0,0,.07c1.89.54,3,2.11,3.89,3.77a1.46,1.46,0,0,0-2.21-.15s0,.1.06.09a1.62,1.62,0,0,1,1.83.36,7.43,7.43,0,0,1,1,1.35c.11.15.39,0,.31-.15l0,0C122.62,134.35,120.47,131.32,118,131.36Z" style="fill:#263238"></path><g style="opacity:0.2"><path d="M137.6,120.83a12.07,12.07,0,0,0,1.57-.21c.52-.12,1-.35,1.53-.46a8.77,8.77,0,0,1,3,0c.09,0,.08.07,0,.06a7.45,7.45,0,0,0-3.15.2A9.7,9.7,0,0,1,138,121a9.47,9.47,0,0,0-5.57,1.75s0,0,0,0A9.46,9.46,0,0,1,137.6,120.83Z"></path><path d="M137.29,119.45a12,12,0,0,0,1.48-.19c.5-.12,1-.34,1.46-.44a8.09,8.09,0,0,1,2.86,0c.08,0,.08.07,0,.06a7,7,0,0,0-3,.19,8.82,8.82,0,0,1-2.42.53,8.88,8.88,0,0,0-5.28,1.66s0,0,0,0A8.94,8.94,0,0,1,137.29,119.45Z"></path></g><path d="M120.38,132.63a6.43,6.43,0,0,0,3.35-5.42,16.84,16.84,0,0,0,6.58-5.85c-.09.32-.73,2.69-1.1,3.88,9.83-2.34,12.53-10.07,12.53-10.07a17.17,17.17,0,0,1,4.63,6.07s-.23-6.09-3.55-10a9.83,9.83,0,0,0-9.25-3.6,14,14,0,0,0-13.48,4.88C114,119.85,120.38,132.63,120.38,132.63Z" style="fill:#a6a6a6"></path><path d="M136.67,123.23a18.3,18.3,0,0,1-5,2.12s0,0,0,0a15.46,15.46,0,0,0,7.06-4.75,14.28,14.28,0,0,0,2-3.1,10,10,0,0,0,1.13-3.84.08.08,0,0,1,.16,0,12,12,0,0,1-.6,4,11,11,0,0,1-2,3.39,12.77,12.77,0,0,1-2.71,2.26" style="fill:#a6a6a6"></path><path d="M113.23,155.27C100.07,178,80.4,230.06,76.85,237.51c-2.42,5.06,24,18.39,25.15,14.72,1.43-4.71,19.79-65.39,21-92.47C123.54,147.22,117.43,148,113.23,155.27Z" style="fill:#eb9481"></path><path d="M102.71,248.88c-.58,4.34-3.53,13.09-5.73,14.42s-13.71,1.05-19.52,1.05-6.95-1.62-6.86-3.62,12.29-2.38,12.29-2.38S66.61,263,62.52,263.78s-13.53,3.14-14.9-.26c-.61-1.53,2-3.08,2-3.08s-4,1.16-4.58-.81c-.72-2.24,2.42-3.47,2.42-3.47s-2.47.5-2.53-1.33c-.12-4.08,15.36-6.08,15.36-6.08S48.4,254.52,48,251.19c-.52-4.61,23.77-9.66,26.3-11.67a17.2,17.2,0,0,0,4.05-5Z" style="fill:#eb9481"></path><path d="M70.69,261.74a1.77,1.77,0,0,1,.55-1.55,5,5,0,0,1,1.42-.92A18.26,18.26,0,0,1,76,258.19c2.28-.58,4.63-1,7-1.6a28.84,28.84,0,0,0-7.17.81,13.13,13.13,0,0,0-3.43,1.31,4.78,4.78,0,0,0-1.43,1.23A1.84,1.84,0,0,0,70.69,261.74Z" style="fill:#263238"></path><path d="M49.59,260.44c1.68-.41,3.33-.88,5-1.36s3.28-1,4.92-1.47l4.9-1.54c1.64-.51,3.27-1,4.92-1.51a37.79,37.79,0,0,0-5.08.91c-1.68.38-3.33.86-5,1.36s-3.27,1.05-4.88,1.66S51.16,259.72,49.59,260.44Z" style="fill:#263238"></path><path d="M65.38,250.5a32.24,32.24,0,0,0-4.69.64,45.66,45.66,0,0,0-4.6,1.19A41.59,41.59,0,0,0,51.65,254a34.31,34.31,0,0,0-4.22,2.17c1.5-.52,3-1.09,4.45-1.59s3-1,4.46-1.47,3-.91,4.5-1.35S63.86,250.91,65.38,250.5Z" style="fill:#263238"></path><path d="M63,246.61a31.49,31.49,0,0,0-14.35,4.91c2.41-.86,4.75-1.76,7.14-2.56S60.56,247.39,63,246.61Z" style="fill:#263238"></path><path d="M76,236.68l28.26,13.82s16.86-65.25,18.74-86.31-6.23-16.22-11.82-6.33C103.56,171.39,76,236.68,76,236.68Z" style="fill:#FFC727"></path><path d="M103.59,243.13c-4-1.6-19.86-8.74-23.19-10.52-.23-.12-.21-.3,0-.2,12,4.51,19.42,8.8,23.21,10.57C103.74,243,103.69,243.17,103.59,243.13Z" style="fill:#263238"></path><path d="M114.4,209c.44-3.11,1-6.19,1.53-9.27s1.17-6.14,1.79-9.21,1.29-6.12,2-9.16l1.09-4.57c.4-1.51.76-3,1.19-4.54-.21,1.55-.48,3.09-.71,4.64l-.82,4.62c-.54,3.08-1.16,6.15-1.78,9.21s-1.3,6.12-2,9.17S115.24,206,114.4,209Z" style="fill:#263238"></path><path d="M120.36,180.2a11.19,11.19,0,0,1,.93-2.3,11.54,11.54,0,0,1,1.36-2.07,10.73,10.73,0,0,1-.92,2.3A10.92,10.92,0,0,1,120.36,180.2Z" style="fill:#263238"></path><path d="M120.88,148.89c-.58,4-1.24,8-1.92,12l-.2-.33c2.35.62,4.69,1.29,7,1.94l.4.11L126,163c-.7,1.54-1.39,3.08-2.11,4.61l-.1-.43c2.48,2.17,5,4.29,7.45,6.49s4.92,4.38,7.33,6.63c-2.59-2-5.14-4.12-7.68-6.21s-5-4.24-7.57-6.35l-.21-.18.12-.25c.68-1.55,1.41-3.08,2.13-4.61l.22.49c-2.33-.69-4.68-1.35-7-2.06l-.26-.08,0-.25C119.19,156.8,120,152.84,120.88,148.89Z" style="fill:#263238"></path><path d="M133.51,150.86c1.3,1.35,2.6,2.72,3.86,4.11s2.55,2.76,3.79,4.18l.25.29-.33.21-2.44,1.51.07-.54c1,1,2,2,3,3l.13.14,0,.18c-.51,2.72-1,5.45-1.52,8.17s-1.08,5.43-1.7,8.14c.34-2.76.74-5.5,1.17-8.23s.89-5.47,1.33-8.2l.1.31c-1-1-2-2-3-3l-.31-.32.38-.23,2.46-1.47-.08.49c-1.23-1.42-2.41-2.88-3.62-4.32S134.67,152.34,133.51,150.86Z" style="fill:#263238"></path><path d="M138.59,180.27c.35,1.32.71,2.64,1,4s.63,2.65.92,4v0c.1,3,.12,5.94.17,8.91s0,5.94,0,8.91q-.25-4.46-.4-8.9c-.07-3-.17-5.94-.2-8.91v0c-.28-1.33-.55-2.67-.79-4S138.81,181.61,138.59,180.27Z" style="fill:#263238"></path><path d="M137.81,183.81a1,1,0,0,1-.78,1,1,1,0,0,1-.77-.18,1,1,0,0,1,.77-1.75A1,1,0,0,1,137.81,183.81Zm0,0a.67.67,0,0,0-.27-.51.63.63,0,0,0-.51-.08.64.64,0,0,0,0,1.18.63.63,0,0,0,.51-.08A.67.67,0,0,0,137.81,183.81Z" style="fill:#263238"></path><path d="M139,192.4a1,1,0,0,1-1.56.78,1,1,0,0,1,.78-1.74A1,1,0,0,1,139,192.4Zm0,0a.67.67,0,0,0-.27-.51.63.63,0,0,0-.51-.08.61.61,0,1,0,.51,1.1A.65.65,0,0,0,139,192.4Z" style="fill:#263238"></path><path d="M139.37,200.27a1,1,0,0,1-.78,1,1,1,0,0,1-.77-.18,1,1,0,0,1,0-1.56,1,1,0,0,1,.77-.18A1,1,0,0,1,139.37,200.27Zm0,0a.64.64,0,0,0-.27-.51.63.63,0,0,0-.51-.08.64.64,0,0,0,0,1.18.63.63,0,0,0,.51-.08A.64.64,0,0,0,139.37,200.27Z" style="fill:#263238"></path></g><g id="freepik--speech-bubble--inject-69"><path d="M187.07,83.9a20.46,20.46,0,0,1-32.67,16.44l-10,2.56,4.18-9.34a20.47,20.47,0,1,1,38.52-9.66Z" style="fill:#fff"></path><path d="M187.07,83.9a20.55,20.55,0,0,1-3,10.76A23,23,0,0,1,182.43,97a22.19,22.19,0,0,1-2,2,20.11,20.11,0,0,1-4.62,3.26,20.42,20.42,0,0,1-5.35,1.89,19.38,19.38,0,0,1-2.83.36,18.08,18.08,0,0,1-2.85,0,20.72,20.72,0,0,1-10.63-3.91l.3.05-10,2.65-.88.23.37-.84,4.14-9.36v.43A20.77,20.77,0,0,1,170.87,63.7a21,21,0,0,1,8.36,4A20.59,20.59,0,0,1,187.07,83.9Zm0,0a20.2,20.2,0,0,0-25.38-19.57,20.06,20.06,0,0,0-8,4.2,21.12,21.12,0,0,0-5.37,7.27,20.21,20.21,0,0,0-1.67,8.85A20.56,20.56,0,0,0,149,93.33l.11.21-.09.22-4.22,9.32-.51-.61L154.31,100l.17,0,.14.1a20,20,0,0,0,10.24,4,18.54,18.54,0,0,0,2.79.06,19.46,19.46,0,0,0,8.09-2.05,19.2,19.2,0,0,0,4.64-3.15,23.41,23.41,0,0,0,2-2A23.14,23.14,0,0,0,184,94.61,20.56,20.56,0,0,0,187.07,83.9Z" style="fill:#263238"></path><polygon points="164.38 94.71 156.76 87 159.32 84.47 163.77 88.97 173.02 74.48 176.05 76.41 164.38 94.71" style="fill:#FFC727"></polygon></g><g id="freepik--Plant--inject-69"><path d="M405.44,376.72s-14.82-3.36-22.95-10.84S369.83,345,369.83,345a127.16,127.16,0,0,1,16.62,4.37,27.74,27.74,0,0,1,5,7.11,34.1,34.1,0,0,0,0-5.08,22.34,22.34,0,0,1,5.28,3.2C403.54,360.48,405.44,376.72,405.44,376.72Z" style="fill:#FFC727"></path><path d="M379.09,351.5c-2-1.4-4.08-2.75-6.09-4.16a.11.11,0,0,1,.12-.19c3.82,2.28,7.58,4.71,11.23,7.27,1.27.89,2.51,1.82,3.75,2.76l-.26-.44c-.45-.74-.91-1.47-1.38-2.2a32.4,32.4,0,0,0-3.15-4.2s0-.12.07-.07c1.16,1.33,2.31,2.64,3.36,4.06q.75,1,1.41,2.07c.23.37.45.74.67,1.12l.22.39c1.92,1.5,3.78,3.07,5.56,4.73,1.1,1,2.16,2.09,3.19,3.18-.58-1.79-1.08-3.61-1.74-5.37,0-.06.08-.09.1,0,.64,1.85,1.35,3.72,1.85,5.62,1.13,1.23,2.22,2.5,3.24,3.82,0-.08,0-.16-.05-.24-.17-.7-.35-1.4-.53-2.09-.36-1.34-.76-2.67-1.21-4a23.24,23.24,0,0,0-4-7.52s0-.12.07-.07a28.83,28.83,0,0,1,5.68,11.86c.16.63.31,1.26.45,1.9.08.33.17.67.22,1,.45.61.89,1.22,1.31,1.84a63.89,63.89,0,0,1,6.27,12.3,140.18,140.18,0,0,1,4.75,14.81c0,.1-.12.13-.15,0-2.9-8.67-5.86-17.47-10.82-25.22q-1.58-2.46-3.38-4.74a28.13,28.13,0,0,1-7.21-1.44,32.12,32.12,0,0,1-7.23-3.48c-1.3-.85-2.49-1.83-3.7-2.8-.05-.05,0-.13.06-.08a29.63,29.63,0,0,0,6.8,4.11,37.18,37.18,0,0,0,7.48,2.51c1.09.24,2.2.42,3.31.57A62.71,62.71,0,0,0,395,364.3c-.5-.5-1-1-1.53-1.46a35.39,35.39,0,0,0-5.48-3.13c-2.43-1.18-4.82-2.42-7.23-3.64-1.35-.69-2.7-1.4-4.07-2.07-.05,0,0-.11.06-.08,2.43,1.17,4.91,2.27,7.37,3.4s4.65,2.12,6.87,3.37l.28.17c-2-1.75-4.08-3.42-6.21-5C383.11,354.35,381.11,352.9,379.09,351.5Z" style="fill:#263238"></path><path d="M379.93,359.14c1.2.53,2.43,1,3.63,1.56s2.39,1.24,3.55,1.93c.05,0,0,.1-.05.08-1.18-.57-2.38-1.1-3.55-1.68s-2.38-1.25-3.61-1.79C379.84,359.21,379.87,359.12,379.93,359.14Z" style="fill:#263238"></path><path d="M453.59,302a21.17,21.17,0,0,0-4.43,12.31c-.05,1.33.16,3.18.32,5.36A35.22,35.22,0,0,0,439.8,328a17.66,17.66,0,0,1,9.78-2.34,28.9,28.9,0,0,1-.57,4.43,16.52,16.52,0,0,0-6.28,1.25,14.13,14.13,0,0,1,5.66,1.12c-2.64,8.41-10.49,17-32.18,20.71a45.54,45.54,0,0,1,3.84-30.52C426.55,309.83,453.59,302,453.59,302Z" style="fill:#FFC727"></path><path d="M408.7,389.1q.57-5.39,1.41-10.74a215.94,215.94,0,0,1,4.37-21.23,85.89,85.89,0,0,1,3.13-9.67,16.88,16.88,0,0,1-.08-1.74c0-.69,0-1.39,0-2.08,0-1.39.08-2.78.2-4.16a50.68,50.68,0,0,1,1.33-8.13c.4-1.55.86-3.07,1.31-4.6,0-.06.12,0,.1,0a58.58,58.58,0,0,0-1.6,8.12,76.19,76.19,0,0,0-.73,8.14c0,.74,0,1.49,0,2.23,0,.32,0,.64,0,1a70.12,70.12,0,0,1,3.66-7.56,93,93,0,0,1,7.42-11.11,5,5,0,0,1,.18-1.21c.1-.49.21-1,.32-1.45.22-1,.47-2,.74-3,.53-2,1.25-3.86,1.86-5.8a.05.05,0,1,1,.1,0c-.58,1.92-1,3.91-1.4,5.86-.21,1-.42,1.94-.64,2.91-.1.48-.21,1-.31,1.45a.52.52,0,0,1,0,.11c.88-1.11,1.77-2.2,2.69-3.27,4.14-4.86,8.68-9.34,13.25-13.79l1.71-1.62s.11,0,.07.08c-4.37,4.55-8.67,9.16-12.74,14q-1.46,1.71-2.86,3.48c.49-.34,1-.66,1.48-1,1.26-.83,2.54-1.63,3.86-2.37s2.64-1.46,4-2.13,2.88-1.25,4.22-2c.06,0,.11.07.05.09a31.14,31.14,0,0,0-4,2.19c-1.32.78-2.64,1.57-3.93,2.4s-2.56,1.6-3.83,2.42c-1,.69-2.09,1.44-3.18,2.07a102.31,102.31,0,0,0-6.95,10.11A73.82,73.82,0,0,0,420.3,344l.77-.33,2-.88,3.84-1.68c2.43-1.06,4.9-2,7.29-3.19a34.35,34.35,0,0,0,3.89-2.16c.05,0,.1.05.05.09-4.45,3.06-9.43,5.22-14.36,7.4l-2.13.94c-.59.26-1.17.55-1.78.78A74.86,74.86,0,0,0,416.2,355a203.75,203.75,0,0,0-4.72,21c-1.25,7.08-2.09,14.21-2.74,21.37-.08.9-.16,1.79-.26,2.68a.29.29,0,0,1-.57,0C408,396.35,408.33,392.71,408.7,389.1Z" style="fill:#263238"></path><path d="M421.9,329.21c.4-2.21,1-4.36,1.58-6.52,0-.06.11,0,.09,0-.54,2.12-.94,4.28-1.34,6.43s-.76,4.39-1.07,6.6a0,0,0,1,1-.06,0A57.24,57.24,0,0,1,421.9,329.21Z" style="fill:#263238"></path><path d="M431.25,335.19a39.57,39.57,0,0,1,4.71-2.66l2.39-1.18c.83-.4,1.69-.73,2.5-1.15.06,0,.11.06,0,.09-.79.4-1.54.88-2.32,1.31s-1.6.88-2.41,1.31a53.33,53.33,0,0,1-4.81,2.49A.12.12,0,0,1,431.25,335.19Z" style="fill:#263238"></path><path d="M405.17,351.05s-13.71-3.28-20-12.48c-6-8.79-8-23.76-8.11-25.08.24,1.21,3.07,14.3,12.41,20.4C396.61,338.56,403.52,342.4,405.17,351.05Z" style="fill:#263238;opacity:0.1"></path><path d="M392.51,327.35a17.44,17.44,0,0,1,5.06,8.33s0,0,0,0a20.48,20.48,0,0,0-5.09-8.26C392.4,327.38,392.47,327.31,392.51,327.35Z" style="fill:#263238"></path><path d="M405.17,351.05s-13.71-3.28-20-12.48c-6-8.79-8-23.76-8.11-25.08a.32.32,0,0,1,0-.09s6.58,9.35,13.49,11.73S407.15,335.76,405.17,351.05Z" style="fill:#FFC727"></path><path d="M379.46,318.55a55.82,55.82,0,0,0,4.24,7.25,29.29,29.29,0,0,0,5.64,5.81c1.87,1.48,3.84,2.82,5.72,4.27l0-.07c-.36-.52-.73-1-1.12-1.53-.79-1-1.65-1.95-2.51-2.89-1.71-1.85-3.45-3.66-5-5.66a20.6,20.6,0,0,1-2.2-3.55c0-.06.06-.09.09,0,2.23,4.64,6.67,7.6,9.84,11.52a19.71,19.71,0,0,1,1.27,1.73,7.57,7.57,0,0,1,.79,1.39,29.49,29.49,0,0,1,4.68,4.73,19.92,19.92,0,0,0-.55-2.66,13.25,13.25,0,0,0-1.46-3.47.05.05,0,0,1,.09-.06,16.89,16.89,0,0,1,1.6,3.45,12.56,12.56,0,0,1,.5,3h0a27.33,27.33,0,0,1,1.86,2.89c-.06-.3-.12-.59-.17-.88-.28-1.37-.58-2.73-.93-4.08a24.51,24.51,0,0,0-3.3-7.73c0-.05.05-.11.08-.05a29.37,29.37,0,0,1,3.66,7.56c.43,1.34.79,2.71,1.09,4.09.15.68.29,1.35.42,2,.07.35.14.71.2,1.07a49.74,49.74,0,0,1,3.16,9.3,137.65,137.65,0,0,1,2.93,17.34,145.43,145.43,0,0,1,.94,18.42c0,.77-.06,1.54-.1,2.31,0,.2-.31.23-.32,0-.13-3-.21-6.09-.39-9.13s-.44-6.08-.77-9.11a161.37,161.37,0,0,0-2.86-17.74c-1.11-5-2.55-10.06-5.29-14.45a27.65,27.65,0,0,0-4.95-5.89c-1.92-1.72-4-3.23-6.05-4.83a33.07,33.07,0,0,1-5.56-5.34,44.29,44.29,0,0,1-4.36-7.08c-.32-.62-.66-1.24-1-1.86C379.35,318.55,379.43,318.5,379.46,318.55Z" style="fill:#263238"></path><path d="M381.83,320.56a47,47,0,0,0,3.05,5.35s0,.08-.06,0a38.48,38.48,0,0,1-3.09-5.35C381.7,320.54,381.8,320.51,381.83,320.56Z" style="fill:#263238"></path><path d="M455.5,345s.22,19.49-11.43,25.12-17.91.94-25.83,2.83h0c.31-.47,6-8.59,14.95-10.83C442.45,359.78,452.7,353.1,455.5,345Z" style="fill:#FFC727"></path><path d="M455.5,345s.22,19.49-11.43,25.12-17.91.94-25.83,2.83h0A43.87,43.87,0,0,1,431.51,369C438.86,368.12,452.9,363.33,455.5,345Z" style="opacity:0.1"></path><path d="M417.48,373.27a19.69,19.69,0,0,1,4.63-3.14c.25-.12.51-.21.76-.32s.26-.31.39-.45c.35-.36.72-.71,1.1-1a15.73,15.73,0,0,1,2.35-1.69c1.93-1.14,4-1.93,6-3,0,0,.1.06,0,.09-1,.51-1.93,1.07-2.87,1.62s-1.87,1.06-2.77,1.64a20.35,20.35,0,0,0-2.31,1.72c-.2.18-.4.38-.6.58a31.78,31.78,0,0,1,3.94-1.05c2.14-.43,4.29-.74,6.42-1.19a30.13,30.13,0,0,0,3.1-.83c1-.78,1.93-1.56,2.84-2.4a23.92,23.92,0,0,0,3-3.34c0-.05.12,0,.08,0a35.12,35.12,0,0,1-4.78,5.27c.51-.19,1-.39,1.49-.61a24,24,0,0,0,9.93-8.27c0-.05.13,0,.09.06a27.2,27.2,0,0,1-8,7.71,24.34,24.34,0,0,1-5.08,2.4,46.67,46.67,0,0,1-6.31,1.49,44.66,44.66,0,0,0-6.17,1.47,18.5,18.5,0,0,0-5.18,2.73,24.25,24.25,0,0,0-7,8.66,43.43,43.43,0,0,0-3.84,14.25c0,.21-.35.21-.34,0C409,387.49,411.16,379,417.48,373.27Z" style="fill:#263238"></path><path d="M431,366.92a6.79,6.79,0,0,1,2.4-2.18,8.76,8.76,0,0,0,2.85-2.35c0-.06.12,0,.08.05a9.46,9.46,0,0,1-2.51,2.25,8.9,8.9,0,0,0-2.75,2.27C431,367,431,367,431,366.92Z" style="fill:#263238"></path><polygon points="424.82 387.66 424.29 398.38 422.66 431.12 398.21 431.12 396.59 398.38 396.06 387.66 424.82 387.66" style="fill:#37474f"></polygon><polygon points="424.82 387.66 424.29 398.38 396.59 398.38 396.06 387.66 424.82 387.66" style="fill:#263238"></polygon><rect x="394.34" y="383.18" width="32.19" height="10.22" style="fill:#37474f"></rect></g></svg>